<svg width="1648" height="2527" xmlns="http://www.w3.org/2000/svg" xmlns:xlink="http://www.w3.org/1999/xlink" xml:space="preserve" overflow="hidden"><defs><clipPath id="clip0"><rect x="1106" y="101" width="1648" height="2527"/></clipPath></defs><g clip-path="url(#clip0)" transform="translate(-1106 -101)"><text font-family="Arial Narrow,Arial Narrow_MSFontService,sans-serif" font-weight="400" font-stretch="condensed" font-size="41" transform="matrix(1 0 0 1 1422.89 223)">Souhaits de bienvenu</text><text font-family="Arial Narrow,Arial Narrow_MSFontService,sans-serif" font-weight="700" font-stretch="condensed" font-size="41" transform="matrix(1 0 0 1 1748.88 223)">e</text><text font-family="Arial Narrow,Arial Narrow_MSFontService,sans-serif" font-weight="400" font-stretch="condensed" font-size="41" transform="matrix(1 0 0 1 1590.64 312)">Clip de présentation de notre association Urunana.com (5 min)</text><text font-family="Symbol,Symbol_MSFontService,sans-serif" font-weight="400" font-size="41" transform="matrix(1 0 0 1 1260.64 492)"></text><text font-family="Arial Narrow,Arial Narrow_MSFontService,sans-serif" font-weight="700" font-stretch="condensed" font-size="41" transform="matrix(1 0 0 1 1384.39 492)">Ingoma</text><text font-family="Arial Narrow,Arial Narrow_MSFontService,sans-serif" font-weight="700" font-stretch="condensed" font-size="41" transform="matrix(1 0 0 1 1513.3 492)">RW</text><text font-family="Arial Narrow,Arial Narrow_MSFontService,sans-serif" font-weight="700" font-stretch="condensed" font-size="41" transform="matrix(1 0 0 1 1578.61 492)">: Tambours du Rwanda</text><text font-family="Arial Narrow,Arial Narrow_MSFontService,sans-serif" font-weight="400" font-stretch="condensed" font-size="41" transform="matrix(1 0 0 1 1425.64 545)">Les tambours sont joués dans un ensemble de 8 à 10, à l’occasion de </text><text font-family="Arial Narrow,Arial Narrow_MSFontService,sans-serif" font-weight="400" font-stretch="condensed" font-size="41" transform="matrix(1 0 0 1 1425.64 598)">cérémonies festives ou pour souhaiter la bienvenue à des invités de marque. </text><text font-family="Symbol,Symbol_MSFontService,sans-serif" font-weight="400" font-size="41" transform="matrix(1 0 0 1 1260.64 651)"></text><text font-family="Arial Narrow,Arial Narrow_MSFontService,sans-serif" font-weight="700" font-stretch="condensed" font-size="41" transform="matrix(1 0 0 1 1384.39 651)">Muhoza</text><text font-family="Arial Narrow,Arial Narrow_MSFontService,sans-serif" font-weight="700" font-stretch="condensed" font-size="41" transform="matrix(1 0 0 1 1519.6 651)">wanjye</text><text font-family="Arial Narrow,Arial Narrow_MSFontService,sans-serif" font-weight="400" font-stretch="condensed" font-size="41" transform="matrix(1 0 0 1 1425.64 703)">Prénom qui signifie </text><text font-family="Arial Narrow,Arial Narrow_MSFontService,sans-serif" font-style="italic" font-weight="400" font-stretch="condensed" font-size="41" transform="matrix(1 0 0 1 1722.41 703)">celle qui me</text><text font-family="Arial Narrow,Arial Narrow_MSFontService,sans-serif" font-style="italic" font-weight="400" font-stretch="condensed" font-size="41" transform="matrix(1 0 0 1 1912.05 703)">console</text><text font-family="Arial Narrow,Arial Narrow_MSFontService,sans-serif" font-weight="400" font-stretch="condensed" font-size="41" transform="matrix(1 0 0 1 2029.5 703)">. Chanson pour l’être aimé qui nous </text><text font-family="Arial Narrow,Arial Narrow_MSFontService,sans-serif" font-weight="400" font-stretch="condensed" font-size="41" transform="matrix(1 0 0 1 1425.64 756)">manque.</text><text font-family="Symbol,Symbol_MSFontService,sans-serif" font-weight="400" font-size="41" transform="matrix(1 0 0 1 1260.64 809)"></text><text font-family="Arial Narrow,Arial Narrow_MSFontService,sans-serif" font-weight="700" font-stretch="condensed" font-size="41" transform="matrix(1 0 0 1 1384.39 809)">Umuhamirizo</text><text font-family="Arial Narrow,Arial Narrow_MSFontService,sans-serif" font-weight="400" font-stretch="condensed" font-size="41" transform="matrix(1 0 0 1 1425.64 862)">Danse</text><text font-family="Arial Narrow,Arial Narrow_MSFontService,sans-serif" font-weight="400" font-stretch="condensed" font-size="41" transform="matrix(1 0 0 1 1533.35 862)">des </text><text font-family="Arial Narrow,Arial Narrow_MSFontService,sans-serif" font-weight="400" font-stretch="condensed" font-size="41" transform="matrix(1 0 0 1 1597.52 862)">meilleurs</text><text font-family="Arial Narrow,Arial Narrow_MSFontService,sans-serif" font-weight="400" font-stretch="condensed" font-size="41" transform="matrix(1 0 0 1 1742.47 862)">guerriers</text><text font-family="Arial Narrow,Arial Narrow_MSFontService,sans-serif" font-weight="400" font-stretch="condensed" font-size="41" transform="matrix(1 0 0 1 1886.27 862)">du </text><text font-family="Arial Narrow,Arial Narrow_MSFontService,sans-serif" font-weight="400" font-stretch="condensed" font-size="41" transform="matrix(1 0 0 1 1933.25 862)">roi</text><text font-family="Arial Narrow,Arial Narrow_MSFontService,sans-serif" font-weight="400" font-stretch="condensed" font-size="41" transform="matrix(1 0 0 1 1980.23 862)">(</text><text font-family="Arial Narrow,Arial Narrow_MSFontService,sans-serif" font-weight="400" font-stretch="condensed" font-size="41" transform="matrix(1 0 0 1 1991.69 862)">appelés </text><text font-family="Arial Narrow,Arial Narrow_MSFontService,sans-serif" font-style="italic" font-weight="400" font-stretch="condensed" font-size="41" transform="matrix(1 0 0 1 2120.02 862)">Intore</text><text font-family="Arial Narrow,Arial Narrow_MSFontService,sans-serif" font-weight="400" font-stretch="condensed" font-size="41" transform="matrix(1 0 0 1 2206.53 862)">) </text><text font-family="Arial Narrow,Arial Narrow_MSFontService,sans-serif" font-weight="400" font-stretch="condensed" font-size="41" transform="matrix(1 0 0 1 2227.15 862)">exécutée</text><text font-family="Arial Narrow,Arial Narrow_MSFontService,sans-serif" font-weight="400" font-stretch="condensed" font-size="41" transform="matrix(1 0 0 1 2374.39 862)">à </text><text font-family="Arial Narrow,Arial Narrow_MSFontService,sans-serif" font-weight="400" font-stretch="condensed" font-size="41" transform="matrix(1 0 0 1 2402.47 862)">chaque</text><text font-family="Arial Narrow,Arial Narrow_MSFontService,sans-serif" font-weight="400" font-stretch="condensed" font-size="41" transform="matrix(1 0 0 1 1425.64 915)">grande</text><text font-family="Arial Narrow,Arial Narrow_MSFontService,sans-serif" font-weight="400" font-stretch="condensed" font-size="41" transform="matrix(1 0 0 1 1540.8 915)">occasion</text><text font-family="Arial Narrow,Arial Narrow_MSFontService,sans-serif" font-weight="400" font-stretch="condensed" font-size="41" transform="matrix(1 0 0 1 1684.6 915)">et </text><text font-family="Arial Narrow,Arial Narrow_MSFontService,sans-serif" font-weight="400" font-stretch="condensed" font-size="41" transform="matrix(1 0 0 1 1721.84 915)">démontrant</text><text font-family="Arial Narrow,Arial Narrow_MSFontService,sans-serif" font-weight="400" font-stretch="condensed" font-size="41" transform="matrix(1 0 0 1 1902.31 915)">la </text><text font-family="Arial Narrow,Arial Narrow_MSFontService,sans-serif" font-weight="400" font-stretch="condensed" font-size="41" transform="matrix(1 0 0 1 1937.83 915)">force</text><text font-family="Arial Narrow,Arial Narrow_MSFontService,sans-serif" font-weight="400" font-stretch="condensed" font-size="41" transform="matrix(1 0 0 1 2022.62 915)">et </text><text font-family="Arial Narrow,Arial Narrow_MSFontService,sans-serif" font-weight="400" font-stretch="condensed" font-size="41" transform="matrix(1 0 0 1 2059.86 915)">l’élégance</text><text font-family="Arial Narrow,Arial Narrow_MSFontService,sans-serif" font-weight="400" font-stretch="condensed" font-size="41" transform="matrix(1 0 0 1 2222 915)">des </text><text font-family="Arial Narrow,Arial Narrow_MSFontService,sans-serif" font-style="italic" font-weight="400" font-stretch="condensed" font-size="41" transform="matrix(1 0 0 1 2286.16 915)">Intore</text><text font-family="Arial Narrow,Arial Narrow_MSFontService,sans-serif" font-weight="400" font-stretch="condensed" font-size="41" transform="matrix(1 0 0 1 2372.68 915)">.</text><text font-family="Symbol,Symbol_MSFontService,sans-serif" font-weight="400" font-size="41" transform="matrix(1 0 0 1 1260.64 968)"></text><text font-family="Arial Narrow,Arial Narrow_MSFontService,sans-serif" font-weight="700" font-stretch="condensed" font-size="41" transform="matrix(1 0 0 1 1384.39 968)">Ibyiza</text><text font-family="Arial Narrow,Arial Narrow_MSFontService,sans-serif" font-weight="700" font-stretch="condensed" font-size="41" transform="matrix(1 0 0 1 1487.52 968)">by’Urwanda</text><text font-family="Arial Narrow,Arial Narrow_MSFontService,sans-serif" font-weight="400" font-stretch="condensed" font-size="41" transform="matrix(1 0 0 1 1425.64 1021)">Laissez</text><text font-family="Arial Narrow,Arial Narrow_MSFontService,sans-serif" font-weight="400" font-stretch="condensed" font-size="41" transform="matrix(1 0 0 1 1541.37 1021)">-</text><text font-family="Arial Narrow,Arial Narrow_MSFontService,sans-serif" font-weight="400" font-stretch="condensed" font-size="41" transform="matrix(1 0 0 1 1552.83 1021)">moi vous conter et vous vanter les beautés du pays qui m’a vu naître, </text><text font-family="Arial Narrow,Arial Narrow_MSFontService,sans-serif" font-weight="400" font-stretch="condensed" font-size="41" transform="matrix(1 0 0 1 1425.64 1074)">le Rwanda.</text><text font-family="Symbol,Symbol_MSFontService,sans-serif" font-weight="400" font-size="41" transform="matrix(1 0 0 1 1260.64 1127)"></text><text font-family="Arial Narrow,Arial Narrow_MSFontService,sans-serif" font-weight="700" font-stretch="condensed" font-size="41" transform="matrix(1 0 0 1 1384.39 1127)">Musomandera</text><text font-family="Arial Narrow,Arial Narrow_MSFontService,sans-serif" font-weight="400" font-stretch="condensed" font-size="41" transform="matrix(1 0 0 1 1425.64 1180)">Aucun amour n’est plus pur et inconditionnel que celui d’une mère.</text><text font-family="Symbol,Symbol_MSFontService,sans-serif" font-weight="400" font-size="41" transform="matrix(1 0 0 1 1260.64 1233)"></text><text font-family="Arial Narrow,Arial Narrow_MSFontService,sans-serif" font-weight="700" font-stretch="condensed" font-size="41" transform="matrix(1 0 0 1 1384.39 1233)">Irebero</text><text font-family="Arial Narrow,Arial Narrow_MSFontService,sans-serif" font-weight="400" font-stretch="condensed" font-size="41" transform="matrix(1 0 0 1 1425.64 1286)">Point de vue depuis les sommets des collines du Rwanda.</text><text font-family="Symbol,Symbol_MSFontService,sans-serif" font-weight="400" font-size="41" transform="matrix(1 0 0 1 1260.64 1339)"></text><text font-family="Arial Narrow,Arial Narrow_MSFontService,sans-serif" font-weight="700" font-stretch="condensed" font-size="41" transform="matrix(1 0 0 1 1384.39 1339)">Karame</text><text font-family="Arial Narrow,Arial Narrow_MSFontService,sans-serif" font-weight="700" font-stretch="condensed" font-size="41" transform="matrix(1 0 0 1 1517.88 1339)">Uwangabiye</text><text font-family="Arial Narrow,Arial Narrow_MSFontService,sans-serif" font-weight="400" font-stretch="condensed" font-size="41" transform="matrix(1 0 0 1 1425.64 1392)">Remerciements à celui qui m’a offert une vache, le plus beau des cadeaux</text><text font-family="Arial Narrow,Arial Narrow_MSFontService,sans-serif" font-weight="400" font-stretch="condensed" font-size="41" transform="matrix(1 0 0 1 2552.57 1392)">au </text><text font-family="Arial Narrow,Arial Narrow_MSFontService,sans-serif" font-weight="400" font-stretch="condensed" font-size="41" transform="matrix(1 0 0 1 1425.64 1445)">Rwanda. </text><text font-family="Symbol,Symbol_MSFontService,sans-serif" font-weight="400" font-size="41" transform="matrix(1 0 0 1 1260.64 1498)"></text><text font-family="Arial Narrow,Arial Narrow_MSFontService,sans-serif" font-weight="700" font-stretch="condensed" font-size="41" transform="matrix(1 0 0 1 1384.39 1498)">Amakondera</text><text font-family="Arial Narrow,Arial Narrow_MSFontService,sans-serif" font-weight="400" font-stretch="condensed" font-size="41" transform="matrix(1 0 0 1 1425.64 1551)">Instrument traditionnel apparenté à la flûte et fabriqué en cornes. Il </text><text font-family="Arial Narrow,Arial Narrow_MSFontService,sans-serif" font-weight="400" font-stretch="condensed" font-size="41" transform="matrix(1 0 0 1 1425.64 1604)">accompagne ou annonce généralement les danseurs guerriers </text><text font-family="Arial Narrow,Arial Narrow_MSFontService,sans-serif" font-style="italic" font-weight="400" font-stretch="condensed" font-size="41" transform="matrix(1 0 0 1 2378.98 1604)">Intore</text><text font-family="Arial Narrow,Arial Narrow_MSFontService,sans-serif" font-weight="400" font-stretch="condensed" font-size="41" transform="matrix(1 0 0 1 2465.49 1604)">.</text><text fill="#FF0000" font-family="Arial Narrow,Arial Narrow_MSFontService,sans-serif" font-weight="700" font-stretch="condensed" font-size="41" transform="matrix(1 0 0 1 1425.64 1657)">ENTRACTE</text><text font-family="Symbol,Symbol_MSFontService,sans-serif" font-weight="400" font-size="41" transform="matrix(1 0 0 1 1260.64 1710)"></text><text font-family="Arial Narrow,Arial Narrow_MSFontService,sans-serif" font-weight="700" font-stretch="condensed" font-size="41" transform="matrix(1 0 0 1 1384.39 1710)">Chant d’entrée par l’artiste </text><text font-family="Arial Narrow,Arial Narrow_MSFontService,sans-serif" font-weight="700" font-stretch="condensed" font-size="41" transform="matrix(1 0 0 1 1822.1 1710)">Nyandwi</text><text font-family="Symbol,Symbol_MSFontService,sans-serif" font-weight="400" font-size="41" transform="matrix(1 0 0 1 1260.64 1763)"></text><text font-family="Arial Narrow,Arial Narrow_MSFontService,sans-serif" font-weight="700" font-stretch="condensed" font-size="41" transform="matrix(1 0 0 1 1384.39 1763)">Cyo</text><text font-family="Arial Narrow,Arial Narrow_MSFontService,sans-serif" font-weight="700" font-stretch="condensed" font-size="41" transform="matrix(1 0 0 1 1457.73 1763)">nimuze</text><text font-family="Arial Narrow,Arial Narrow_MSFontService,sans-serif" font-weight="400" font-stretch="condensed" font-size="41" transform="matrix(1 0 0 1 1425.64 1816)">Venez nous montrer votre beauté et votre grâce. </text><text font-family="Symbol,Symbol_MSFontService,sans-serif" font-weight="400" font-size="41" transform="matrix(1 0 0 1 1260.64 1869)"></text><text font-family="Arial Narrow,Arial Narrow_MSFontService,sans-serif" font-weight="700" font-stretch="condensed" font-size="41" transform="matrix(1 0 0 1 1384.39 1869)">Ingeri</text><text font-family="Arial Narrow,Arial Narrow_MSFontService,sans-serif" font-weight="700" font-stretch="condensed" font-size="41" transform="matrix(1 0 0 1 1485.23 1869)">y ‘</text><text font-family="Arial Narrow,Arial Narrow_MSFontService,sans-serif" font-weight="700" font-stretch="condensed" font-size="41" transform="matrix(1 0 0 1 1522.47 1869)">abeza</text><text font-family="Arial Narrow,Arial Narrow_MSFontService,sans-serif" font-weight="400" font-stretch="condensed" font-size="41" transform="matrix(1 0 0 1 1425.64 1922)">Danse des guerriers</text><text font-family="Arial Narrow,Arial Narrow_MSFontService,sans-serif" font-style="italic" font-weight="400" font-stretch="condensed" font-size="41" transform="matrix(1 0 0 1 1741.32 1922)">Intore</text><text font-family="Arial Narrow,Arial Narrow_MSFontService,sans-serif" font-weight="400" font-stretch="condensed" font-size="41" transform="matrix(1 0 0 1 1837 1922)">sur une chanson vantant leur bravoure et leurs </text><text font-family="Arial Narrow,Arial Narrow_MSFontService,sans-serif" font-weight="400" font-stretch="condensed" font-size="41" transform="matrix(1 0 0 1 1425.64 1975)">exploits épiques.</text><text font-family="Symbol,Symbol_MSFontService,sans-serif" font-weight="400" font-size="41" transform="matrix(1 0 0 1 1260.64 2027)"></text><text font-family="Arial Narrow,Arial Narrow_MSFontService,sans-serif" font-weight="700" font-stretch="condensed" font-size="41" transform="matrix(1 0 0 1 1384.39 2027)">Igisarabuge</text><text font-family="Arial Narrow,Arial Narrow_MSFontService,sans-serif" font-weight="400" font-stretch="condensed" font-size="41" transform="matrix(1 0 0 1 1425.64 2080)">Le plus beau des pays.</text><text font-family="Symbol,Symbol_MSFontService,sans-serif" font-weight="400" font-size="41" transform="matrix(1 0 0 1 1260.64 2133)"></text><text font-family="Arial Narrow,Arial Narrow_MSFontService,sans-serif" font-weight="700" font-stretch="condensed" font-size="41" transform="matrix(1 0 0 1 1384.39 2133)">Marebe</text><text font-family="Arial Narrow,Arial Narrow_MSFontService,sans-serif" font-weight="700" font-stretch="condensed" font-size="41" transform="matrix(1 0 0 1 1512.15 2133)">atembaho</text><text font-family="Arial Narrow,Arial Narrow_MSFontService,sans-serif" font-weight="700" font-stretch="condensed" font-size="41" transform="matrix(1 0 0 1 1681.16 2133)">amaribori</text><text font-family="Arial Narrow,Arial Narrow_MSFontService,sans-serif" font-weight="400" font-stretch="condensed" font-size="41" transform="matrix(1 0 0 1 1425.64 2186)">Poème romantique décrivant la beauté unique, la douceur et les talents de </text><text font-family="Arial Narrow,Arial Narrow_MSFontService,sans-serif" font-weight="400" font-stretch="condensed" font-size="41" transform="matrix(1 0 0 1 1425.64 2239)">l’être aimé.</text><text font-family="Symbol,Symbol_MSFontService,sans-serif" font-weight="400" font-size="41" transform="matrix(1 0 0 1 1260.64 2292)"></text><text font-family="Arial Narrow,Arial Narrow_MSFontService,sans-serif" font-weight="700" font-stretch="condensed" font-size="41" transform="matrix(1 0 0 1 1384.39 2292)">Danse des mamans</text><text font-family="Symbol,Symbol_MSFontService,sans-serif" font-weight="400" font-size="41" transform="matrix(1 0 0 1 1260.64 2345)"></text><text font-family="Arial Narrow,Arial Narrow_MSFontService,sans-serif" font-weight="700" font-stretch="condensed" font-size="41" transform="matrix(1 0 0 1 1384.39 2345)">Danse surprise des coachs</text><text font-family="Symbol,Symbol_MSFontService,sans-serif" font-weight="400" font-size="41" transform="matrix(1 0 0 1 1260.64 2398)"></text><text font-family="Arial Narrow,Arial Narrow_MSFontService,sans-serif" font-weight="700" font-stretch="condensed" font-size="41" transform="matrix(1 0 0 1 1384.39 2398)">Ingoma</text><text font-family="Arial Narrow,Arial Narrow_MSFontService,sans-serif" font-weight="700" font-stretch="condensed" font-size="41" transform="matrix(1 0 0 1 1513.3 2398)">BU: Tambours du Burundi</text><text font-family="Symbol,Symbol_MSFontService,sans-serif" font-weight="400" font-size="41" transform="matrix(1 0 0 1 1260.64 2451)"></text><text font-family="Arial Narrow,Arial Narrow_MSFontService,sans-serif" font-weight="700" font-stretch="condensed" font-size="41" transform="matrix(1 0 0 1 1384.39 2451)">Danse finale de tous les artistes </text><text font-family="Symbol,Symbol_MSFontService,sans-serif" font-weight="400" font-size="41" transform="matrix(1 0 0 1 1260.64 2504)"></text><text font-family="Arial Narrow,Arial Narrow_MSFontService,sans-serif" font-weight="700" font-stretch="condensed" font-size="41" transform="matrix(1 0 0 1 1384.39 2504)">Remerciements</text><path d="M1108.5 406.839C1108.5 259.744 1227.74 140.5 1374.84 140.5L2440.16 140.5C2587.26 140.5 2706.5 259.744 2706.5 406.839L2706.5 2359.16C2706.5 2506.26 2587.26 2625.5 2440.16 2625.5L1374.84 2625.5C1227.74 2625.5 1108.5 2506.26 1108.5 2359.16Z" stroke="#FF0000" stroke-width="4.58333" stroke-miterlimit="8" fill="none" fill-rule="evenodd"/><path d="M1153.5 369.839C1153.5 222.744 1272.74 103.5 1419.84 103.5L2485.16 103.5C2632.26 103.5 2751.5 222.744 2751.5 369.839L2751.5 2322.16C2751.5 2469.26 2632.26 2588.5 2485.16 2588.5L1419.84 2588.5C1272.74 2588.5 1153.5 2469.26 1153.5 2322.16Z" stroke="#FF0000" stroke-width="4.58333" stroke-miterlimit="8" fill="none" fill-rule="evenodd"/></g></svg>