<svg version="1.1" id="Calque_1" xmlns="http://www.w3.org/2000/svg" xmlns:xlink="http://www.w3.org/1999/xlink" x="0px" y="0px"
	 viewBox="0 0 173 71.5" style="enable-background:new 0 0 173 71.5;" xml:space="preserve">
<style type="text/css">
	.st0{fill:#1D1D1B;}	.st1{fill:#0055A3;}	.st2{fill:#E30613;}	.st3{fill:#FFFFFF;}	.st4{fill:none;}</style>
<g>
	<path class="st0" d="M82.4,38.4h-4.9L62.5,21.2v17.2h-5V13.6h5l14.9,17.2V13.6h5V38.4z"/>
	<path class="st0" d="M171.7,38.4h-4.9l-14.9-17.2v17.2h-5V13.6h5l14.9,17.2V13.6h5V38.4z"/>
	<path class="st0" d="M97.3,26l-9.9-12.4h6.4l6,7.5l5.9-7.5h6.5L102.2,26v12.4h-5V26z"/>
	<path class="st0" d="M61,8.7h-0.2l-3.2-7.5h1.1l2.2,5.2l2.2-5.2h1.1L61,8.7z"/>
	<path class="st0" d="M67.8,8.6h-1.1V1.2h1.1V8.6z"/>
	<path class="st0" d="M73.1,7.7h3.4v1H72V1.2h1.1V7.7z"/>
	<path class="st0" d="M80.5,7.7h3.4v1h-4.4V1.2h1.1V7.7z"/>
	<path class="st0" d="M90.5,2.1h-3.2v2.2h3v1h-3v2.3h3.3v1h-4.3V1.2h4.2V2.1z"/>
	<path class="st0" d="M98.5,1.2h2.9c2.8,0,4,2,4,3.7c0,1.9-1.5,3.7-4,3.7h-2.9V1.2z M99.5,7.7h1.7c2.4,0,3-1.8,3-2.8
		c0-1.5-1-2.8-3-2.8h-1.6V7.7z"/>
	<path class="st0" d="M112,2.1h-3.2v2.2h3v1h-3v2.3h3.2v1h-4.3V1.2h4.2V2.1z"/>
	<path class="st0" d="M127.1,13.6c-6.9,0-12.4,5.6-12.4,12.4s5.6,12.4,12.4,12.4c6.9,0,12.4-5.6,12.4-12.4S133.9,13.6,127.1,13.6z
		 M127.1,33.4c-4.1,0-7.4-3.3-7.4-7.4s3.3-7.4,7.4-7.4c4.1,0,7.4,3.3,7.4,7.4S131.2,33.4,127.1,33.4z"/>
</g>
<g>
	<path class="st1" d="M8,57.1c1.8,0.2,4.7,1,7.1,1c0,0,2.3-0.1,3.4,0c1.1,0.1,1.4,0.1,2.6,0.2c0.7,0.1,2.4-0.1,6.2-0.6
		c3.4-0.5,4.9,0.6,6.9,0.7c2.1,0.1,7.5-1,9.7,0c1,0.5-0.5,1.8-2.4,1.8c-2.4,0.1-3.9,2.3-5.7,2.5c-1.8,0.2-5.8-1-8.1-0.8
		c-2.3,0.2-5.7,1.1-7.4,1.3c-1.8,0.2-5.1,0.1-4.3,0.8c0.8,0.6,3.2,1.1,5.7,0.8c2.5-0.3,3.4-0.6,6.3-0.4c2.9,0.2,4.7,0.8,7,0.6
		c2.3-0.1,2.2-0.5,7.7,0.3c2.9,0.4,4.1-0.1,4.2-0.4c0.3-0.7-3.8-0.4-3.8-0.4c-1.6-0.1-2.4-0.1-3.9-1c-1.8-1.1,5.1-1.7,5.1-1.7
		s2.8-0.6,1.9-1.3c-0.6-0.5-0.6-0.8,0.4-0.6c3.1,0.6,4.5-0.6,6.3-0.6c2.8,0,5.6,0.2,7.6-0.2c1.9-0.4,3.8-1,3.8-1.4
		c0-0.7-3.6-0.2-4-0.2c-2,0.2-4.3,0.9-6.6,0.8c-2.3-0.1-6.4-0.8-6.5-2.4c-0.1-1.7,7.1-0.2,9.2-0.3c2.1-0.1,9.2-1.6,9.2-2.9
		c0-1.3-4.7,1.2-10,0.6c-1.9-0.2-7.9-1-7.9-1c-1-0.1-2.1-0.2-3.1-0.1c-3.8,0.2-7.2,1.2-6.5,0.2c0.5-0.8,1.4-1.1,2.2-1.2
		c0.7-0.1,3.1-0.4,1.5-0.8c-1.2-0.3-3-0.2-4.7,0.1c-1.3,0.3-5.2,0.9-9.7,0.1c-3.4-0.6-5.1,0.1-7.7,0.2c-2.6,0.1-4.8,0.1-4.8,0.7
		c0,0.9,7.5,0,9,0.6c1.9,0.8,3.5,0.9,5.7,0.7c2.3-0.3,7.3-0.4,5.9,0.5c0,0-2.3,1.7,0.8,1.3c2.9-0.4,3.6-0.5,4.8-0.4
		c1.3,0,2.4-0.2,2,0.4c-0.5,0.7-2,0.8-4.2,1.1c-2.3,0.3-5,1.6-9.5,0.9c0,0-5.4-1.2-8.7-0.4c-2.9,0.6-2.3,0.8-1.8,0.8
		c0.3,0,1.9,0,0.7,0.4c-0.8,0.2-1.8,0.3-4.2,0.3c-2.3,0-5.2-1.1-7-1.3c0,0-2.7-0.3-2.6,0.2C5.5,57,8,57.1,8,57.1z"/>
	<path class="st1" d="M47.6,49.7c-3.5,0-5.8-2-6.9-2.3c-2.7-0.7-4.4,0.2-3.9,0.6c0.3,0.2,1.9,0,2.8,0.2c1.2,0.3-0.5,0.6-4.8,0.8
		c-4.5,0.2-4.7-0.5-7-0.9V13.6h19.9l0,33.2c-0.3,0.1-0.6,0.1-0.9,0.1c-1.4,0-4-0.3-3.5,0.3c0.4,0.5,2.4,1.1,4.5,1.1
		c0,0,4.3,0,4.2,0.6C51.8,49.6,47.6,49.7,47.6,49.7z"/>
</g>
<path class="st2" d="M27.8,48.1c-2.2-0.3-2.4-0.5-4.6-0.4c-2.4,0.1-4.1,0.9-5.6,1.3c-1.5,0.4-5.5,1.1-5.3,0.1c0.1-0.2,3.5-1,4.5-1.3
	c0.9-0.3,2.1-0.5,2.4-0.9c0.2-0.3-0.7-0.7-1.8-0.7c-1.6,0-3.7,0.5-6.1,0.7c-1.1,0.1-2.4-0.1-3.3-0.2L8,1.2l19.8,0L27.8,48.1z"/>
<path class="st2" d="M12.3,65c1-0.1,1.6-0.2,1.8-0.6c0.2-0.4-2.1-0.3-2.1-0.3c-0.4,0-1.8,0-2.1-0.6c-0.4-0.8,1.6-1.3,4-1.5
	c4.1-0.2,8.6-1.6,13.7-1.6c1.6,0,3.9,0.5,5.4,0.6c0.7,0,2-0.5,2-0.8c0-0.3-1.3-0.1-2.1-0.1c-1.1,0-2.6-0.9-4.2-0.9
	c-4.1,0.1-9.7,0.9-9.7,0.9c-4.8,0.4-9.3-0.5-11.1-0.7c0,0-3.7-0.4-3.6,0.1c0.1,0.5,1.9,1.5,2.8,1.8c1,0.3,2.2,0.8,1.1,1.1
	c-1,0.2-4.7,0.5-3.1,1.4C4.9,63.8,7.2,65.4,12.3,65z"/>
<path class="st2" d="M32.8,69.1c0.5,0,1.9-0.1-0.7-1c-2.6-0.8,2.6-0.8,3.3-1.1c0.7-0.3-1.7-0.6-4.1-0.8c-2.4-0.2-4.1,0.1-4.1,0.1
	c-2.2,0.3-2,0.2-3.6,0.1c-1.6-0.1-3.3,0-3.8,0.4c-0.6,0.4,1.3,0.7,2,0.7c0,0,3.7,0.1,4.5,0.1c0.8-0.1,2,0,1.7,0.3
	c-0.2,0.4-1.5,0.9-2.6,1.1c-0.7,0.1-1.5,0.2-2.1,0.7c-0.8,0.7,2.3,1.1,3,1.1c0.6,0,0.7-0.2-0.1-0.3c-2.5-0.4,0.8-0.4,2.5-1.2
	C29.7,68.7,32.2,69.2,32.8,69.1z"/>
<path class="st2" d="M5.6,53.5c1.4,0,2.8-0.1,3.6-0.1c0.8,0-0.7,0.3-1.7,0.6c-0.8,0.2-0.6,0.5,3.1,0.9c2.4,0.2,5-0.4,5-0.4
	c3.3-0.7,8.5,0.2,8.5,0.2c2.8,0.3,3.9-0.2,4.3-0.6c0.4-0.4-1.2-0.1-2.4-0.1c-2,0-4-0.3-4-0.3s-3.9-0.8-6.7-0.7
	c-2.8,0.1-4.3-0.2-4.3-0.6c0-0.4,1-0.4,1.3-0.7c0.1-0.2-0.2-0.4-1.8-0.2C9,51.7,8.4,52.1,5,51.7c0,0-4.3-0.3-4.1,0.5
	C1,53,3.2,53.3,5.6,53.5z"/>
<g>
	<path class="st0" d="M43.8,37c-0.4-0.8-1.1-1.9-1.1-2.6c0-0.4,0.3-1.1,0.6-1.6c0.2-0.5,0.4-0.8,0.4-1c0-0.5-0.3-0.5-0.4-0.5
		c-0.5,0-1.2,0.5-2.2,1.1c-1.2,0.8-2.7,1.7-3.9,1.7c-0.5,0-1.1-0.1-1.8-0.3c0.3-0.2,0.6-0.3,0.7-0.4c0.3-0.2,0.3-0.4,0.1-0.8
		c-0.3-0.5-3.3-3-4-3.3c-0.3-0.1-0.8-0.1-1.1,0.2c0,0-0.6,0.6-0.6,0.6c-0.5,0.5-1.5,1.5-1.8,1.5v0l0,0h0c-1-3.2-3.2-4.2-5-4.4
		c-1.4-0.2-3,0.1-3.1,0.4c0,0-1.2,2.3-1.8,3.5c-1.3,0.4-2.2,1-2.7,1.4l-0.2,0.2c-0.1,0.1-0.5,0.2-0.9,0.4c-2.1,0.9-4.1,1.8-4.1,2.7
		c0,1.2,5.5,2.4,9.2,2.7c0.3,1.4,1.9,3.8,2.7,3.8c0.5,0,0.9-0.4,0.9-1c0-0.4,0.1-0.9,0.2-1.4c0.1-0.4,0.1-0.6,0.1-0.7
		c0-0.3-0.1-0.5-0.3-0.8c3-0.1,5.1-0.4,6.6-0.7c0.5,0.6,2.3,2.4,2.8,2.7c0.4,0.2,0.8,0.2,1,0.1c0.4-0.1,0.6-0.4,0.6-0.6
		c0.1-0.4,0.2-1.6,0.2-2c0-0.4-0.2-0.7-0.5-0.9c-0.1-0.1-0.4-0.1-0.6-0.2c1-0.2,2-0.4,3.5-0.4c1.1,0,2.9,0.8,4.4,1.4
		c1,0.4,1.8,0.8,2.2,0.8c0.4,0,0.6-0.3,0.6-0.5C44.3,37.8,44.1,37.6,43.8,37z"/>
	<g>
		<path class="st3" d="M27.8,31.4c0,0,0.2,0,0.3,0.1c-0.6-1.9-1.7-3.1-3.4-3.7c-1.9-0.7-3.8-0.2-4-0.1c0,0-1,1.9-1.7,3.1
			c0.5-0.1,1.1-0.2,1.7-0.2C24.1,30.7,26.7,31.2,27.8,31.4z"/>
	</g>
	<g>
		<path class="st3" d="M34.8,33.5c0.5-0.2,0.9-0.5,1-0.5c0.1-0.1,0.1-0.1,0-0.3c-0.3-0.4-3.1-2.8-3.8-3.2c-0.1-0.1-0.5-0.1-0.8,0.2
			l-0.6,0.6c-0.6,0.6-1,1-1.4,1.2c0.4,0.1,1.1,0.4,2.3,0.8C32.5,32.7,33.7,33.2,34.8,33.5z"/>
	</g>
	<g>
		<path class="st3" d="M34.1,37.4c-0.3-0.1-0.9-0.3-1.1-0.4c-0.2,0.1-0.4,0.1-0.6,0.2c-0.6,0.2-1.2,0.3-2,0.5
			c0.6,0.7,2.2,2.2,2.6,2.4c0.3,0.1,0.5,0.2,0.7,0.1c0.3-0.1,0.4-0.3,0.4-0.4c0.1-0.2,0.2-1.3,0.2-1.8
			C34.4,37.7,34.3,37.5,34.1,37.4z"/>
	</g>
	<g>
		<path class="st3" d="M22.9,38.4c-0.4,0-0.8,0-1.2,0c-0.4,0-0.9,0-1.5-0.1c0.3,1.3,1.9,3.4,2.4,3.4c0.5,0,0.5-0.4,0.5-0.6
			c0-0.4,0.1-1,0.2-1.5c0.1-0.3,0.1-0.5,0.1-0.6C23.4,38.9,23.2,38.6,22.9,38.4z"/>
	</g>
	<path class="st3" d="M11,35.6c0-0.8,2.6-1.8,3.8-2.3c0.5-0.2,0.8-0.3,1-0.4c0,0,0.3-0.2,0.3-0.2c0.7-0.5,2.2-1.6,4.6-1.6
		c3.4,0,5.9,0.5,7,0.8l0.5,0.1l0.3,0l0.5,0c0.3,0,1.3,0.4,2.3,0.8c2,0.8,4.4,1.7,5.7,1.7c1.3,0,2.8-1,4.1-1.8c0.8-0.5,1.6-1,2-1
		c0,0,0.1,0,0.1,0.2c0,0.1-0.2,0.5-0.3,0.8c-0.3,0.6-0.6,1.3-0.6,1.8c0,0.8,0.7,2,1.2,2.8c0.2,0.3,0.4,0.7,0.4,0.8
		c0,0,0,0.1-0.2,0.1c-0.3,0-1.1-0.4-2-0.7c-1.5-0.6-3.3-1.4-4.5-1.4c-2,0-3.3,0.3-4.8,0.7c-2.1,0.6-4.7,1.3-10.7,1.3
		C17.8,38.1,11,36.5,11,35.6z"/>
	<g>
		<g>
			<path class="st0" d="M22.5,35c0,0-0.5,0.2-0.8,0.4c-0.3,0.2-0.3,0.4,0.1,0.2c0.3-0.1,0.9-0.3,0.9-0.3c0.5-0.2,1.2-0.4,2.1-0.4
				c0.3,0,1.1,0,1.1,0.5c0,0.7-1.4,1.2-3.2,1.2c-0.7,0-1.2,0-1.5-0.1c-0.2,0-0.3,0.2-0.1,0.2c0.2,0.1,1,0.2,1.6,0.2
				c2.7,0.1,3.6-0.6,3.6-1.4c0-0.6-0.6-0.9-1.5-0.9C23.7,34.5,23,34.8,22.5,35z"/>
		</g>
		<path class="st0" d="M14.6,34.3c0.1,0.1,0.4,0.4,0.1,0.4c-0.3,0.1-1.4,0.4-1.2-0.3C13.7,33.7,14.2,34,14.6,34.3z"/>
		<g>
			<path class="st0" d="M17.2,33.1c0,0.1,0,0.1,0.1,0.1l0,0c0.1,0.1,0.4,0.3,0.5,0.4c0.1,0.1,0.3,1.6-0.1,2.5
				c-0.1,0.3-0.3,0.5-0.5,0.6c0,0-0.2,0.1-0.1,0.1c0,0.1,0.1,0.1,0.2,0c0.1,0,1.5-0.5,0.9-3.4C18.1,33.4,17.4,33.1,17.2,33.1
				L17.2,33.1L17.2,33.1z"/>
		</g>
	</g>
</g>
<rect x="-28.9" y="-35.7" class="st4" width="212.6" height="127.6"/>
</svg>
